<?xml version="1.0" encoding="UTF-8" standalone="no"?>
<!-- Created with Inkscape (http://www.inkscape.org/) -->

<svg
   version="1.1"
   id="svg1"
   width="1211.5168"
   height="1183.5586"
   viewBox="0 0 1211.5168 1183.5586"
   sodipodi:docname="clipboard-md.svg"
   inkscape:version="1.4 (e7c3feb1, 2024-10-09)"
   inkscape:export-filename="clipboard-md.png"
   inkscape:export-xdpi="96"
   inkscape:export-ydpi="96"
   xml:space="preserve"
   xmlns:inkscape="http://www.inkscape.org/namespaces/inkscape"
   xmlns:sodipodi="http://sodipodi.sourceforge.net/DTD/sodipodi-0.dtd"
   xmlns="http://www.w3.org/2000/svg"
   xmlns:svg="http://www.w3.org/2000/svg"><defs
     id="defs1" /><sodipodi:namedview
     id="namedview1"
     pagecolor="#ffffff"
     bordercolor="#000000"
     borderopacity="0.25"
     inkscape:showpageshadow="2"
     inkscape:pageopacity="0.0"
     inkscape:pagecheckerboard="0"
     inkscape:deskcolor="#d1d1d1"
     showgrid="false"
     inkscape:zoom="0.021102392"
     inkscape:cx="15069.382"
     inkscape:cy="4336.0014"
     inkscape:window-width="2560"
     inkscape:window-height="1338"
     inkscape:window-x="0"
     inkscape:window-y="25"
     inkscape:window-maximized="1"
     inkscape:current-layer="g2" /><g
     inkscape:groupmode="layer"
     inkscape:label="Image"
     id="g1"
     transform="translate(-807.67786,-163.08881)"><path
       style="fill:#000000"
       d="m 1067.5,1290.3583 c -24.0349,-2.8321 -80.5118,-17.6889 -91.0824,-39.9644 -1.8704,-3.9414 -4.192,-10.0299 -5.1591,-13.53 C 969.593,1230.8367 969.5,1207.6202 969.5,798 c 0,-409.28006 0.094,-432.88839 1.7584,-439.73423 31.6107,-50.7234 99.2375,-53.58869 150.9916,-53.96343 L 1181,303.93881 V 339.46941 375 h -51 -51 v 420.87756 c 0,385.47964 0.1353,420.98984 1.6082,422.21224 1.335,1.108 56.9976,1.295 327.6734,1.101 235.5383,-0.1688 326.4334,-0.5393 327.3917,-1.3347 1.0984,-0.9115 1.3267,-73.5272 1.3267,-421.97854 V 375 h -51 -51 V 339.5 304 l 55.75,10e-4 c 107.9275,0.003 147.0917,37.94765 154.8509,60.99863 0.9131,4.63324 1.1501,848.88377 0.2415,860.49997 -2.3229,29.6993 -58.3955,54.9046 -86.3424,63.2157 -5.7041,1.6963 -22.8436,1.7895 -347.5,1.8902 -187.825,0.058 -342.85,-0.053 -344.5,-0.2476 z M 1232.0566,418.75 c -4.0216,-2.44072 -6.1089,-4.61955 -8.3824,-8.75 l -3.0275,-5.5 -0.091,-54.5 c -0.05,-29.975 0.249,-57.09541 0.6651,-60.26758 1.0867,-8.28365 5.1939,-14.34488 12.1304,-17.90146 3.6434,-1.86808 6.2011,-1.984 47.5,-2.15268 L 1324.5,269.5 l 0.6894,-6.25032 c 0.8164,-7.40136 3.9068,-19.07563 7.1572,-27.03766 6.7399,-16.50929 23.066,-32.94439 40.9758,-41.24952 11.2143,-5.20031 20.8879,-7.27566 34.1776,-7.33238 13.7605,-0.0587 20.0429,1.11001 31.4569,5.85196 14.385,5.97631 22.4678,11.75448 31.8616,22.77719 11.0279,12.94007 19.2234,32.89299 20.4307,49.74073 l 0.2508,3.5 43,0.21325 c 48.5721,0.24089 48.7591,0.26667 55.0263,7.58856 6.5272,7.62553 6.5538,7.92697 6.2481,70.78794 L 1595.5,404.5 l -2.3396,4.5 c -2.9309,5.63736 -6.5041,9.46067 -10.7044,11.45386 C 1579.5561,421.82997 1560.4044,422 1408.3046,422 h -170.8931 z m 191.7916,-118.31047 c 8.0771,-4.04079 12.6511,-8.91983 16.7447,-17.86148 2.3562,-5.14666 2.5964,-6.67781 2.1855,-13.93014 -0.8512,-15.02279 -7.9493,-25.55726 -21.4897,-31.89358 -6.027,-2.82038 -7.0377,-2.98904 -15.1428,-2.52691 -7.3962,0.42172 -9.5258,0.96986 -14.3538,3.69466 -11.3966,6.43181 -18.7899,18.34941 -18.7913,30.29041 0,20.78772 14.8857,35.51077 36.1148,35.71444 6.8069,0.0653 8.3715,-0.30506 14.7326,-3.4874 z M 1068,1319.7303 c -24.0349,-2.8321 -80.5118,-17.6889 -91.0824,-39.9644 -1.8704,-3.9414 -4.192,-10.0299 -5.1591,-13.53 C 970.093,1260.2087 970,1236.9922 970,827.37195 c 0,-409.28006 0.094,-432.88839 1.7584,-439.73423 39.1599,-49.78519 93.9147,-53.55015 150.9916,-53.96343 l 58.75,-0.36353 v 35.5306 35.53059 h -51 -51 v 420.87756 c 0,385.47959 0.1353,420.98989 1.6082,422.21229 1.335,1.1079 56.9976,1.295 327.6734,1.101 235.5383,-0.1688 326.4334,-0.5393 327.3917,-1.3347 1.0984,-0.9115 1.3267,-73.5272 1.3267,-421.97859 V 404.37195 h -51 -51 v -35.5 -35.5 l 55.75,10e-4 c 66.5573,0.002 68.5139,0.20546 85.196,8.87528 4.2123,2.18916 9.1014,6.06312 14.1087,11.17926 11.1632,11.40587 51.5256,20.54392 55.5462,40.94409 0.9131,4.63324 1.1501,848.88382 0.2415,860.49992 -2.3229,29.6993 -58.3955,54.9047 -86.3424,63.2157 -5.7041,1.6963 -22.8436,1.7896 -347.5,1.8902 -187.825,0.058 -342.85,-0.053 -344.5,-0.2475 z m 164.5566,-871.60835 c -4.0216,-2.44072 -6.1089,-4.61955 -8.3824,-8.75 l -3.0275,-5.5 -0.091,-54.5 c -0.05,-29.975 0.249,-57.09541 0.6651,-60.26758 1.0867,-8.28365 5.1939,-14.34488 12.1304,-17.90146 3.6434,-1.86808 6.2011,-1.984 47.5,-2.15268 l 43.6488,-0.17828 0.6894,-6.25032 c 0.8164,-7.40136 3.9068,-19.07563 7.1572,-27.03766 6.7399,-16.50929 23.066,-32.94439 40.9758,-41.24952 11.2143,-5.20031 20.8879,-7.27566 34.1776,-7.33238 13.7605,-0.0587 20.0429,1.11001 31.4569,5.85196 14.385,5.97631 22.4678,11.75448 31.8616,22.77719 11.0279,12.94007 19.2234,32.89299 20.4307,49.74073 l 0.2508,3.5 43,0.21325 c 48.5721,0.24089 48.7591,0.26667 55.0263,7.58856 6.5272,7.62553 6.5538,7.92697 6.2481,70.78794 l -0.2744,56.41025 -2.3396,4.5 c -2.9309,5.63736 -6.5041,9.46067 -10.7044,11.45386 -2.8999,1.37611 -22.0516,1.54614 -174.1514,1.54614 h -170.8931 z m 191.7916,-118.31047 c 8.0771,-4.04079 12.6511,-8.91983 16.7447,-17.86148 2.3562,-5.14666 2.5964,-6.67781 2.1855,-13.93014 -0.8512,-15.02279 -7.9493,-25.55726 -21.4897,-31.89358 -6.027,-2.82038 -7.0377,-2.98904 -15.1428,-2.52691 -7.3962,0.42172 -9.5258,0.96986 -14.3538,3.69466 -11.3966,6.43181 -18.7899,18.34941 -18.7913,30.29041 0,20.78772 14.8857,35.51077 36.1148,35.71444 6.8069,0.0653 8.3715,-0.30506 14.7326,-3.4874 z M 1068,1319.7303 c -24.0349,-2.8321 -80.5118,-17.6889 -91.0824,-39.9644 -1.8704,-3.9414 -4.192,-10.0299 -5.1591,-13.53 C 970.093,1260.2087 970,1236.9922 970,827.37195 c 0,-409.28006 0.094,-432.88839 1.7584,-439.73423 31.6107,-50.7234 99.2375,-53.58869 150.9916,-53.96343 l 58.75,-0.36353 v 35.5306 35.53059 h -51 -51 v 420.87756 c 0,385.47959 0.1353,420.98989 1.6082,422.21229 1.335,1.1079 56.9976,1.295 327.6734,1.101 235.5383,-0.1688 326.4334,-0.5393 327.3917,-1.3347 1.0984,-0.9115 1.3267,-73.5272 1.3267,-421.97859 V 404.37195 h -51 -51 v -35.5 -35.5 l 55.75,10e-4 c 107.9275,0.003 147.0917,37.94765 154.8509,60.99863 0.9131,4.63324 1.1501,848.88382 0.2415,860.49992 -2.3229,29.6993 -58.3955,54.9047 -86.3424,63.2157 -5.7041,1.6963 -22.8436,1.7896 -347.5,1.8902 -187.825,0.058 -342.85,-0.053 -344.5,-0.2475 z m 164.5566,-871.60835 c -4.0216,-2.44072 -6.1089,-4.61955 -8.3824,-8.75 l -3.0275,-5.5 -0.091,-54.5 c -0.05,-29.975 0.249,-57.09541 0.6651,-60.26758 1.0867,-8.28365 5.1939,-14.34488 12.1304,-17.90146 3.6434,-1.86808 6.2011,-1.984 47.5,-2.15268 l 43.6488,-0.17828 0.6894,-6.25032 c 0.8164,-7.40136 3.9068,-19.07563 7.1572,-27.03766 6.7399,-16.50929 23.066,-32.94439 40.9758,-41.24952 11.2143,-5.20031 20.8879,-7.27566 34.1776,-7.33238 13.7605,-0.0587 20.0429,1.11001 31.4569,5.85196 14.385,5.97631 22.4678,11.75448 31.8616,22.77719 11.0279,12.94007 19.2234,32.89299 20.4307,49.74073 l 0.2508,3.5 43,0.21325 c 48.5721,0.24089 48.7591,0.26667 55.0263,7.58856 6.5272,7.62553 6.5538,7.92697 6.2481,70.78794 l -0.2744,56.41025 -2.3396,4.5 c -2.9309,5.63736 -6.5041,9.46067 -10.7044,11.45386 -2.8999,1.37611 -22.0516,1.54614 -174.1514,1.54614 h -170.8931 z m 191.7916,-118.31047 c 8.0771,-4.04079 12.6511,-8.91983 16.7447,-17.86148 2.3562,-5.14666 2.5964,-6.67781 2.1855,-13.93014 -0.8512,-15.02279 -7.9493,-25.55726 -21.4897,-31.89358 -6.027,-2.82038 -7.0377,-2.98904 -15.1428,-2.52691 -7.3962,0.42172 -9.5258,0.96986 -14.3538,3.69466 -11.3966,6.43181 -18.7899,18.34941 -18.7913,30.29041 0,20.78772 14.8857,35.51077 36.1148,35.71444 6.8069,0.0653 8.3715,-0.30506 14.7326,-3.4874 z"
       id="path1"
       sodipodi:nodetypes="cssscscccccsssssccccccssssccsscsssscssssssscssscssscssssssscsscssscscccccsssssccccccssssssccsscsssscssssssscssscssscssssssscsscssscscccccsssssccccccssssccsccscsscscssssscssscssscssssssccss"
       inkscape:export-filename="N-clipboard.png"
       inkscape:export-xdpi="96"
       inkscape:export-ydpi="96" /><g
       id="g2"
       transform="translate(1311.793,748.44771)"><path
         d="m -97.111668,125.27487 v -342.3188 H 0.67082227 L 98.453319,-91.191425 196.2358,-217.04393 h 97.78252 v 342.3188 H 196.2358 V -71.055041 L 98.453319,54.79747 0.67082227,-71.055041 V 125.27487 Z M 103.06678,423.65672 -96.10377,299.63845 H 36.643687 V 195.33711 H 169.4899 v 104.30134 h 132.74746 z"
         id="path1-9"
         style="stroke-width:4.96109"
         sodipodi:nodetypes="ccccccccccccccccccccc" /></g></g></svg>
